# xmcd
#
# Track frame offsets:
#	150
#	13630
#	28666
#	39848
#	52607
#	65741
#	82475
#	94850
#	106682
#	119291
#
# Disc length: 1751 seconds
#
# Revision: 1
# Processed by: cddbd v1.5.2PL0 Copyright (c) Steve Scherf et al.
# Submitted via: audiograbber 1.83.01
#
DISCID=7706d50a
DTITLE=Glen Campbell - I Remember Hank Williams
DYEAR=1973
DGENRE=Country
TTITLE0=I Could Never Be Ashamed of You
TTITLE1=Your Cheatin' Heart
TTITLE2=I'm So Lonesome I Could Cry
TTITLE3=Half as Much
TTITLE4=Wedding Bells
TTITLE5=You Win Again
TTITLE6=Mansion on the Hill
TTITLE7=Take These Chains from My Heart
TTITLE8=Cold, Cold Heart
TTITLE9=I Can't Help It (If I'm Still in Love with You)
EXTD=
EXTT0=
EXTT1=
EXTT2=
EXTT3=
EXTT4=
EXTT5=
EXTT6=
EXTT7=
EXTT8=
EXTT9=
PLAYORDER=
